<svg xmlns="http://www.w3.org/2000/svg" viewBox="0 0 1440 320"><path fill="#7289DA" fill-opacity="1" d="M0,32L30,42.7C60,53,120,75,180,74.7C240,75,300,53,360,85.3C420,117,480,203,540,224C600,245,660,203,720,192C780,181,840,203,900,218.7C960,235,1020,245,1080,218.7C1140,192,1200,128,1260,106.7C1320,85,1380,107,1410,117.3L1440,128L1440,320L1410,320C1380,320,1320,320,1260,320C1200,320,1140,320,1080,320C1020,320,960,320,900,320C840,320,780,320,720,320C660,320,600,320,540,320C480,320,420,320,360,320C300,320,240,320,180,320C120,320,60,320,30,320L0,320Z"></path></svg>